<svg width="57" height="38" viewBox="0 0 57 38" fill="none" xmlns="http://www.w3.org/2000/svg">
<path fill-rule="evenodd" clip-rule="evenodd" d="M15.5868 8.76352C15.2922 8.7734 14.9964 8.79264 14.7018 8.82093L21.6475 6.875L27.0147 10.3369L18.8682 12.6192C18.9205 12.5955 18.9719 12.5714 19.0224 12.547C21.3166 11.8138 22.7399 11.2797 24.9329 10.2994L23.4793 9.36184L20.9075 7.70302C19.8084 7.76893 18.7346 8.05656 17.9161 8.27581C17.4898 8.39001 17.1327 8.48565 16.8774 8.52176C16.6408 8.55521 16.1486 8.64987 15.5868 8.76352Z" fill="#449788"/>
<path fill-rule="evenodd" clip-rule="evenodd" d="M16.9184 9.33362C16.7531 9.33917 16.5871 9.34997 16.4217 9.36584L20.3194 8.27386L23.3313 10.2166L18.7599 11.4973C18.7892 11.484 18.8181 11.4704 18.8464 11.4568C20.1337 11.0453 20.9325 10.7456 22.163 10.1955L21.3473 9.66939L19.9041 8.73852C19.2873 8.77551 18.6848 8.93691 18.2255 9.05995C17.9862 9.12403 17.7859 9.17771 17.6426 9.19797C17.5098 9.21674 17.2336 9.26985 16.9184 9.33362Z" fill="#449788"/>
<path fill-rule="evenodd" clip-rule="evenodd" d="M13.4124 7.82715C12.9373 7.84308 12.4602 7.87412 11.985 7.91975L23.1868 4.78143L31.8428 10.3646L18.7047 14.0454C18.7891 14.007 18.872 13.9682 18.9534 13.9289C22.6532 12.7464 24.9487 11.8851 28.4853 10.3042L26.141 8.79209L21.9934 6.11682C20.2208 6.22311 18.489 6.68699 17.169 7.04058C16.4814 7.22476 15.9056 7.37901 15.4938 7.43724C15.1123 7.49119 14.3184 7.64385 13.4124 7.82715Z" fill="#449788"/>
<path d="M18.2129 27.4173C18.6548 27.8591 18.8757 28.4237 18.8757 29.1109C18.8757 30.1746 18.3684 30.9928 17.3538 31.5655C16.732 31.9255 15.9465 32.1055 14.9974 32.1055C14.0647 32.1055 13.1074 31.9173 12.1256 31.541C11.1601 31.181 10.3419 30.731 9.67102 30.1909C9.01647 29.6673 8.48464 29.1109 8.07555 28.5218C7.66645 27.9327 7.4619 27.4582 7.4619 27.0982C7.4619 26.7382 7.56009 26.4682 7.75645 26.2882C7.96918 26.0918 8.39464 25.8464 9.03283 25.5518C12.7147 23.8336 14.5556 21.1172 14.5556 17.4026C14.5556 15.7008 14.0974 14.2444 13.1811 13.0335C12.2647 11.8226 11.1356 11.2171 9.79375 11.2171C8.45191 11.2171 7.41281 11.7244 6.67644 12.7389C5.94007 13.7535 5.57188 15.0953 5.57188 16.7644C5.57188 18.4335 5.94007 19.6854 6.67644 20.5199C7.41281 21.3545 8.38646 21.8372 9.59738 21.9681C9.40102 22.639 9.04919 23.2118 8.54192 23.6863C8.03464 24.1609 7.43736 24.3982 6.75008 24.3982C5.4737 24.3982 4.31187 23.7927 3.26458 22.5818C2.23366 21.3708 1.7182 19.8326 1.7182 17.9672C1.7182 15.3326 2.54457 13.1317 4.19732 11.3644C5.85007 9.58071 8.00191 8.68888 10.6528 8.68888C12.9765 8.68888 14.8747 9.41707 16.3475 10.8735C17.8202 12.3135 18.5566 14.2608 18.5566 16.7153C18.5566 19.1535 17.8611 21.3054 16.4702 23.1709C15.0956 25.02 13.0911 26.3127 10.4565 27.0491C11.7329 27.8346 13.3938 28.2273 15.4393 28.2273C16.5193 28.2273 17.4438 27.9573 18.2129 27.4173ZM28.3687 18.8754C28.6633 18.8426 28.8842 18.7526 29.0315 18.6054C29.1787 18.4417 29.2524 18.139 29.2524 17.6972C29.2524 17.2553 29.1215 16.8544 28.8596 16.4944C28.6142 16.1181 28.2705 15.9299 27.8287 15.9299C27.3869 15.9299 26.9696 16.2081 26.5769 16.7644C26.1842 17.3208 25.9223 18.1308 25.7914 19.1945L28.3687 18.8754ZM28.786 24.5945C30.1442 24.5945 31.2815 24.0791 32.1979 23.0481C32.5742 23.2118 32.7624 23.5554 32.7624 24.0791C32.7624 24.8645 32.296 25.5927 31.3633 26.2636C30.4306 26.9345 29.3342 27.27 28.0742 27.27C26.1269 27.27 24.6051 26.7382 23.5087 25.6745C22.4287 24.6109 21.8887 23.089 21.8887 21.109C21.8887 19.1126 22.4859 17.4108 23.6805 16.0035C24.8751 14.5962 26.3887 13.8926 28.2215 13.8926C29.6287 13.8926 30.7906 14.3508 31.707 15.2671C32.6233 16.1671 33.0815 17.1981 33.0815 18.3599C33.0815 19.2599 32.8688 19.9063 32.4433 20.299C32.0179 20.6917 31.2897 20.9045 30.2588 20.9372L25.7178 21.0599C25.8323 23.4163 26.8551 24.5945 28.786 24.5945ZM42.9533 16.6417C42.5769 16.2162 42.0206 16.0035 41.2842 16.0035C40.5478 16.0035 39.9015 16.4126 39.3451 17.2308C38.8051 18.0326 38.5351 19.1454 38.5351 20.569C38.5351 23.4163 39.4105 24.84 41.1615 24.84C41.9306 24.84 42.5279 24.5209 42.9533 23.8827V16.6417ZM46.807 10.6771V24.4718C46.807 25.3554 47.077 25.9364 47.617 26.2145C46.9952 26.9182 46.2424 27.27 45.3588 27.27C44.2624 27.27 43.5424 26.8282 43.1988 25.9445C42.8388 26.3536 42.3724 26.6809 41.7997 26.9264C41.2433 27.1555 40.6951 27.27 40.1551 27.27C38.5351 27.27 37.1932 26.7055 36.1296 25.5763C35.0823 24.4472 34.5587 22.9009 34.5587 20.9372C34.5587 18.9572 35.1559 17.2881 36.3505 15.9299C37.5451 14.5717 39.1569 13.8926 41.186 13.8926C41.7588 13.8926 42.3478 13.958 42.9533 14.0889V10.5298C42.9533 9.71162 42.6751 9.1307 42.1188 8.78706C42.7406 8.09978 43.4933 7.75614 44.377 7.75614C45.997 7.75614 46.807 8.72979 46.807 10.6771Z" fill="#449788"/>
<path d="M46.8915 23.1954C46.8915 24.5209 47.456 25.1836 48.5851 25.1836C49.4851 25.1836 50.2133 24.7582 50.7697 23.9072C51.3424 23.0563 51.6288 21.9681 51.6288 20.6427C51.6288 19.3172 51.3833 18.3026 50.8924 17.599C50.4015 16.879 49.8124 16.519 49.1251 16.519C48.6833 16.519 48.2579 16.6662 47.8488 16.9608C47.456 17.239 47.1369 17.6235 46.8915 18.1144V23.1954ZM46.8915 10.6771V15.5126C47.7588 14.4326 48.9124 13.8926 50.3524 13.8926C51.8088 13.8926 53.0279 14.4489 54.0097 15.5617C55.0079 16.6744 55.507 18.1799 55.507 20.0781C55.507 22.3199 54.8443 24.0791 53.5188 25.3554C52.1934 26.6318 50.4752 27.27 48.3642 27.27C46.6133 27.27 45.2878 26.9755 44.3878 26.3864C43.4878 25.7809 43.0378 24.7172 43.0378 23.1954V10.5298C43.0378 9.71162 42.7596 9.1307 42.2032 8.78706C42.8251 8.09978 43.5778 7.75614 44.4615 7.75614C46.0815 7.75614 46.8915 8.72979 46.8915 10.6771Z" fill="#449788"/>
</svg>
